<svg id="Lag_1" data-name="Lag 1" xmlns="http://www.w3.org/2000/svg" viewBox="0 0 127.97 127.97"><defs><style>.cls-1{fill:#fff;}</style></defs><title>fb</title><path class="cls-1" d="M63.88,0A63.64,63.64,0,0,1,128,63.88,63.67,63.67,0,0,1,64.07,128C28.2,128,0,99.6,0,63.57A63.62,63.62,0,0,1,63.88,0ZM48,52.09V63.74l7.05.63V99H69.24V64.26l10-.54c.35-4.08.66-7.77,1-11.83-2.43,0-4.07,0-5.72,0s-3.22-.16-4.74-.24c-1.49-9.8-1.33-10,10.08-11.67V27.4c-7,1.37-14.15,1.26-19.64,4.19-7.54,4-4.66,13-5.51,20.08Z"/></svg>