<svg id="Lag_1" data-name="Lag 1" xmlns="http://www.w3.org/2000/svg" viewBox="0 0 127.97 127.97"><defs><style>.cls-1{fill:#fff;}</style></defs><title>insta</title><path class="cls-1" d="M64,0a63.63,63.63,0,0,1,64,64,63.66,63.66,0,0,1-64,64C28.16,128,0,99.54,0,63.48A63.62,63.62,0,0,1,64,0Zm32.1,64c0-7.83.07-15.65,0-23.48-.06-5.74-2.86-8.56-8.61-8.58q-23.47-.11-46.95,0c-5.74,0-8.56,2.86-8.59,8.61q-.09,23.47,0,47c0,5.75,2.84,8.56,8.6,8.58q23.48.1,46.95,0c5.75,0,8.53-2.86,8.59-8.61C96.14,79.63,96.07,71.8,96.07,64Z"/><path class="cls-1" d="M44.71,58.9c-1.87,9.47.74,16.61,8.11,21.56,7.16,4.8,14.83,4.85,22.07.22,7.68-4.9,10.22-12.26,8.57-21.49L87.39,58c.39.62.7.89.7,1.16.07,8.49,0,17,.17,25.47,0,2.9-1.26,3.7-3.92,3.69q-20.48-.11-41,0c-2.87,0-3.74-1.22-3.71-3.91.1-8.48,0-17,0-26.22Z"/><path class="cls-1" d="M77,63.8A12.84,12.84,0,0,1,63.83,76.62a12.75,12.75,0,1,1,.38-25.5A12.8,12.8,0,0,1,77,63.8Z"/><path class="cls-1" d="M82.21,39.9c5.05-1.31,6,1.18,6.19,5.84.17,5.18-1.58,6.37-6.55,6.4-5.13,0-5.94-1.91-6-6.43C75.81,40.88,77.18,38.74,82.21,39.9Z"/></svg>